<svg width="17" height="17" viewBox="0 0 17 17" fill="none" xmlns="http://www.w3.org/2000/svg">
<path d="M8.50008 14.875C7.60541 14.1119 6.77614 13.2752 6.02092 12.3739C4.88758 11.0203 3.54175 9.00433 3.54175 7.08333C3.54126 6.10226 3.83182 5.1431 4.37666 4.32723C4.9215 3.51135 5.69612 2.87545 6.60251 2.49999C7.50889 2.12453 8.50628 2.02639 9.46846 2.218C10.4306 2.4096 11.3143 2.88234 12.0077 3.57637C12.4694 4.03598 12.8353 4.58259 13.0843 5.18456C13.3333 5.78652 13.4605 6.4319 13.4584 7.08333C13.4584 9.00433 12.1126 11.0203 10.9792 12.3739C10.224 13.2752 9.39475 14.1119 8.50008 14.875ZM8.50008 4.95833C7.9365 4.95833 7.39599 5.18222 6.99748 5.58073C6.59897 5.97925 6.37508 6.51975 6.37508 7.08333C6.37508 7.64692 6.59897 8.18742 6.99748 8.58594C7.39599 8.98445 7.9365 9.20833 8.50008 9.20833C9.06367 9.20833 9.60417 8.98445 10.0027 8.58594C10.4012 8.18742 10.6251 7.64692 10.6251 7.08333C10.6251 6.51975 10.4012 5.97925 10.0027 5.58073C9.60417 5.18222 9.06367 4.95833 8.50008 4.95833Z" fill="#EE684A"/>
</svg>
