<svg width="16" height="16" viewBox="0 0 16 16" fill="none" xmlns="http://www.w3.org/2000/svg">
<path fill-rule="evenodd" clip-rule="evenodd" d="M15.84 12.8198C15.84 15.4291 11.32 15.7307 7.921 15.7307L7.67776 15.7306C5.5122 15.7264 0 15.6182 0 12.8039C0 10.2479 4.33835 9.90626 7.71148 9.89338L8.16423 9.89315C10.3296 9.89731 15.84 10.0056 15.84 12.8198ZM7.921 11.0805C3.66 11.0805 1.5 11.66 1.5 12.8039C1.5 13.9582 3.66 14.5432 7.921 14.5432C12.181 14.5432 14.34 13.9637 14.34 12.8198C14.34 11.6655 12.181 11.0805 7.921 11.0805ZM7.921 0C10.849 0 13.23 1.88575 13.23 4.20375C13.23 6.52175 10.849 8.40671 7.921 8.40671H7.889C4.967 8.39958 2.6 6.51304 2.60997 4.20138C2.60997 1.88575 4.992 0 7.921 0ZM7.921 1.1305C5.78 1.1305 4.03798 2.50879 4.03798 4.20375C4.031 5.89317 5.76 7.27067 7.892 7.277L7.921 7.84225V7.277C10.061 7.277 11.802 5.89792 11.802 4.20375C11.802 2.50879 10.061 1.1305 7.921 1.1305Z" fill="white"/>
</svg>
