<svg width="12" height="12" viewBox="0 0 12 12" fill="none" xmlns="http://www.w3.org/2000/svg">
<path d="M9.27414 6.88619C9.12325 7.03241 9.05392 7.24389 9.08829 7.4513L9.60621 10.3176C9.64991 10.5606 9.54737 10.8064 9.34405 10.9468C9.1448 11.0925 8.87973 11.1099 8.66242 10.9934L6.08214 9.64765C5.99242 9.59988 5.8928 9.57425 5.79085 9.57133H5.63297C5.5782 9.57949 5.52461 9.59696 5.47567 9.62376L2.89481 10.976C2.76722 11.04 2.62274 11.0628 2.48117 11.04C2.13628 10.9748 1.90615 10.6462 1.96267 10.2996L2.48117 7.43324C2.51554 7.22409 2.44621 7.01144 2.29532 6.86288L0.191599 4.82383C0.0156575 4.65313 -0.0455142 4.39679 0.0348829 4.1655C0.11295 3.9348 0.312195 3.76643 0.552803 3.72856L3.44826 3.30851C3.66848 3.28579 3.8619 3.1518 3.96094 2.95372L5.23681 0.337901C5.2671 0.279642 5.30614 0.226044 5.35332 0.180602L5.40576 0.139821C5.43314 0.109526 5.4646 0.0844752 5.49955 0.0640846L5.56306 0.0407811L5.6621 0H5.90736C6.12642 0.0227209 6.31925 0.153803 6.42004 0.349553L7.7128 2.95372C7.80602 3.14423 7.9872 3.27647 8.19635 3.30851L11.0918 3.72856C11.3365 3.76352 11.541 3.93247 11.622 4.1655C11.6983 4.39912 11.6325 4.65546 11.453 4.82383L9.27414 6.88619Z" fill="#EE684A"/>
</svg>
